<?xml version="1.0" encoding="UTF-8" standalone="no"?>
<!-- Generator: Adobe Illustrator 18.0.0, SVG Export Plug-In . SVG Version: 6.00 Build 0)  -->

<svg
   version="1.1"
   id="Layer_1"
   x="0px"
   y="0px"
   viewBox="0 0 569.10602 569.10602"
   enable-background="new 0 0 30 30"
   xml:space="preserve"
   width="569.10602"
   height="569.10602"
   sodipodi:docname="facebook-icon-black.svg"
   xmlns:inkscape="http://www.inkscape.org/namespaces/inkscape"
   xmlns:sodipodi="http://sodipodi.sourceforge.net/DTD/sodipodi-0.dtd"
   xmlns="http://www.w3.org/2000/svg"
   xmlns:svg="http://www.w3.org/2000/svg"><sodipodi:namedview
   id="namedview1"
   pagecolor="#505050"
   bordercolor="#ffffff"
   borderopacity="1"
   inkscape:showpageshadow="0"
   inkscape:pageopacity="0"
   inkscape:pagecheckerboard="1"
   inkscape:deskcolor="#505050"><inkscape:page
     x="0"
     y="0"
     width="569.10602"
     height="569.10602"
     id="page2"
     margin="0"
     bleed="0" /></sodipodi:namedview><defs
   id="defs1" />
<path
   id="circle1"
   style="fill:#000000;stroke-width:18.9702"
   d="M 284.553,0 A 284.553,284.553 0 0 0 0,284.553 284.553,284.553 0 0 0 284.553,569.106 284.553,284.553 0 0 0 569.106,284.553 284.553,284.553 0 0 0 284.553,0 Z m 43.64628,115.71081 c 20.86722,0 39.80778,1.8896 45.49884,1.8896 v 55.021 H 341.4636 c -24.66126,0 -30.3449,11.38212 -30.3449,28.45529 v 37.9404 h 58.8002 l -7.5955,60.72688 H 311.1187 V 453.3952 H 250.39182 V 299.74398 H 199.1871 V 239.0171 h 51.20472 v -43.60922 c 0,-51.21954 32.27898,-79.69707 77.80746,-79.69707 z" />

</svg>
