<?xml version="1.0" encoding="UTF-8" standalone="no"?>
<!-- Created with Inkscape (http://www.inkscape.org/) -->

<svg
   width="150.54887mm"
   height="150.57591mm"
   viewBox="0 0 150.54887 150.57591"
   version="1.1"
   id="svg1"
   xml:space="preserve"
   inkscape:export-filename="instagram-icon-black.svg"
   inkscape:export-xdpi="96"
   inkscape:export-ydpi="96"
   xmlns:inkscape="http://www.inkscape.org/namespaces/inkscape"
   xmlns:sodipodi="http://sodipodi.sourceforge.net/DTD/sodipodi-0.dtd"
   xmlns="http://www.w3.org/2000/svg"
   xmlns:svg="http://www.w3.org/2000/svg"><sodipodi:namedview
     id="namedview1"
     pagecolor="#505050"
     bordercolor="#ffffff"
     borderopacity="1"
     inkscape:showpageshadow="0"
     inkscape:pageopacity="0"
     inkscape:pagecheckerboard="1"
     inkscape:deskcolor="#505050"
     inkscape:document-units="mm"
     inkscape:export-bgcolor="#00000000"><inkscape:page
       x="0"
       y="0"
       width="150.54887"
       height="150.5759"
       id="page2"
       margin="0"
       bleed="0" /></sodipodi:namedview><defs
     id="defs1" /><g
     inkscape:label="Lag 1"
     inkscape:groupmode="layer"
     id="layer1"
     transform="translate(-25.243997,-45.465608)"><path
       style="fill:#ffffff"
       d="M 64.402331,195.97534 C 55.216336,194.82711 47.443144,191.50542 40.646789,185.82397 33.170498,179.57411 28.084618,171.00214 25.839702,160.86743 l -0.595705,-2.68932 V 120.73957 83.301025 l 0.601587,-2.71818 c 0.96776,-4.372685 1.830819,-6.834021 3.778415,-10.77557 2.335699,-4.72699 4.666075,-7.987743 8.319998,-11.641667 3.653924,-3.653923 6.914677,-5.984299 11.641667,-8.319998 3.941549,-1.947596 6.402885,-2.810655 10.77557,-3.778415 l 2.71818,-0.601587 h 37.438546 37.43854 l 2.68932,0.595705 c 16.12796,3.572466 28.35104,14.544186 33.23374,29.831379 2.01839,6.319346 1.91235,3.817954 1.91235,45.111458 v 36.90938 l -0.61028,2.77812 c -1.33308,6.06847 -3.48539,11.22698 -6.64024,15.91489 -6.57077,9.76376 -15.94527,16.067 -27.93906,18.78569 l -2.64583,0.59974 -36.38021,0.0413 c -20.009115,0.0227 -36.737397,-0.003 -37.173959,-0.0579 z m 74.083329,-12.1862 c 12.99737,-3.02865 22.05504,-12.08644 25.08156,-25.08186 0.54463,-2.33856 0.55627,-2.97899 0.6493,-35.71875 0.0623,-21.91942 -4e-4,-34.390818 -0.18303,-36.412872 -0.70707,-7.828477 -3.86414,-14.658207 -9.27878,-20.072844 -4.76071,-4.760712 -10.50493,-7.750987 -17.40072,-9.058319 -1.38552,-0.262671 -9.5873,-0.33722 -37.10062,-0.33722 -35.174222,0 -35.33238,0.0024 -37.835414,0.56821 -12.997223,2.938144 -22.429718,12.506525 -25.059506,25.420519 -0.439985,2.160613 -0.472786,4.763085 -0.472786,37.511276 0,27.40612 0.07459,35.58301 0.33722,36.96832 1.307332,6.89579 4.297607,12.64001 9.058319,17.40072 5.173393,5.17339 12.222073,8.54254 19.34752,9.2478 1.217255,0.12047 17.572254,0.19674 36.344437,0.16947 33.63535,-0.0488 34.16585,-0.0576 36.5125,-0.60445 z M 96.615753,161.20227 C 81.860719,159.77554 68.826256,150.2017 63.069047,136.56215 56.602562,121.24223 60.020554,103.77832 71.788631,92.010242 90.017087,73.781785 120.1554,76.847447 134.43166,98.382275 c 10.61546,16.012735 8.42896,37.406535 -5.21775,51.053245 -6.75174,6.75174 -15.71846,10.93192 -25.26127,11.7765 -3.3681,0.29809 -4.164192,0.29703 -7.336887,-0.01 z m 10.781367,-12.43134 c 10.40542,-2.68764 18.48384,-10.76753 21.14835,-21.1522 0.80545,-3.13918 1.01206,-8.34243 0.45717,-11.51348 -1.63167,-9.3246 -7.27741,-17.007894 -15.53507,-21.141694 -4.29967,-2.152419 -8.13989,-3.05813 -12.9811,-3.061574 -15.989557,-0.01137 -28.817474,12.816538 -28.806099,28.806098 0.0034,4.84121 0.909155,8.68143 3.061574,12.9811 4.059636,8.10951 11.642656,13.76485 20.796133,15.50952 2.855314,0.54424 8.946512,0.32452 11.859042,-0.42777 z M 139.2137,84.72859 c -2.074,-1.026612 -3.24561,-2.953498 -3.23577,-5.321671 0.007,-1.736508 0.67994,-3.264563 1.91434,-4.348384 1.24698,-1.094862 2.56068,-1.498777 4.43396,-1.363276 3.94942,0.285675 6.39177,4.387363 4.78089,8.029031 -0.75439,1.70543 -1.218,2.191212 -2.80062,2.934568 -1.69355,0.795457 -3.57463,0.821214 -5.0928,0.06973 z"
       id="path1" /></g></svg>
